<svg width="153" height="153" viewBox="0 0 153 153" fill="none" xmlns="http://www.w3.org/2000/svg">
<rect width="153" height="153" rx="76.5" fill="#EADDFF"/>
<path fill-rule="evenodd" clip-rule="evenodd" d="M99.4509 61.2C99.4509 73.8749 89.1759 84.15 76.5009 84.15C63.826 84.15 53.5509 73.8749 53.5509 61.2C53.5509 48.5251 63.826 38.25 76.5009 38.25C89.1759 38.25 99.4509 48.5251 99.4509 61.2ZM91.8009 61.2C91.8009 69.65 84.9509 76.5 76.5009 76.5C68.051 76.5 61.2009 69.65 61.2009 61.2C61.2009 52.75 68.051 45.9 76.5009 45.9C84.9509 45.9 91.8009 52.75 91.8009 61.2Z" fill="#4F378A"/>
<path d="M76.5009 95.625C51.7364 95.625 30.6364 110.269 22.5989 130.785C24.5569 132.729 26.6195 134.568 28.7775 136.293C34.7626 117.457 53.5384 103.275 76.5009 103.275C99.4635 103.275 118.239 117.457 124.224 136.293C126.382 134.568 128.445 132.729 130.403 130.785C122.366 110.269 101.265 95.625 76.5009 95.625Z" fill="#4F378A"/>
</svg>
